<mxfile host="app.diagrams.net" modified="2023-11-28T15:48:42.443Z" agent="Mozilla/5.0 (Windows NT 10.0; Win64; x64) AppleWebKit/537.36 (KHTML, like Gecko) Chrome/119.0.0.0 Safari/537.36" etag="ZyBKDjDsbXltoidd6wmB" version="22.1.4" type="device">
  <diagram name="Страница — 1" id="hqghXok1EgJKlNfCsuB7">
    <mxGraphModel dx="258" dy="2209" grid="1" gridSize="10" guides="1" tooltips="1" connect="1" arrows="1" fold="1" page="1" pageScale="1" pageWidth="827" pageHeight="1169" math="0" shadow="0">
      <root>
        <mxCell id="0" />
        <mxCell id="1" parent="0" />
        <mxCell id="bK-xkZKcuil71p4V97wX-61" value="" style="group" vertex="1" connectable="0" parent="1">
          <mxGeometry x="1875" y="-460" width="1145" height="820" as="geometry" />
        </mxCell>
        <mxCell id="bK-xkZKcuil71p4V97wX-9" value="" style="rounded=0;whiteSpace=wrap;html=1;fillColor=#9f7ecd;strokeColor=none;" vertex="1" parent="bK-xkZKcuil71p4V97wX-61">
          <mxGeometry x="316.7902350813743" y="20.5" width="357.7866184448463" height="758.5" as="geometry" />
        </mxCell>
        <mxCell id="bK-xkZKcuil71p4V97wX-15" value="" style="rounded=0;whiteSpace=wrap;html=1;fillColor=#9f7ecd;strokeColor=none;" vertex="1" parent="bK-xkZKcuil71p4V97wX-61">
          <mxGeometry x="667.1229656419529" y="567.1666666666666" width="462.1410488245931" height="211.83333333333334" as="geometry" />
        </mxCell>
        <mxCell id="bK-xkZKcuil71p4V97wX-8" value="" style="rounded=0;whiteSpace=wrap;html=1;fillColor=#a2a2a2;strokeColor=none;" vertex="1" parent="bK-xkZKcuil71p4V97wX-61">
          <mxGeometry x="48.4502712477396" y="20.5" width="275.7938517179023" height="758.5" as="geometry" />
        </mxCell>
        <mxCell id="bK-xkZKcuil71p4V97wX-12" value="" style="rounded=0;whiteSpace=wrap;html=1;strokeColor=none;fillColor=#75a993;" vertex="1" parent="bK-xkZKcuil71p4V97wX-61">
          <mxGeometry x="667.1229656419529" y="20.5" width="462.1410488245931" height="553.5" as="geometry" />
        </mxCell>
        <mxCell id="bK-xkZKcuil71p4V97wX-13" value="" style="shape=flexArrow;endArrow=classic;html=1;rounded=0;exitX=0;exitY=1;exitDx=0;exitDy=0;fillColor=#0F0F0F;" edge="1" parent="bK-xkZKcuil71p4V97wX-61" source="bK-xkZKcuil71p4V97wX-8">
          <mxGeometry width="50" height="50" relative="1" as="geometry">
            <mxPoint x="-40.99638336347197" y="341.6666666666667" as="sourcePoint" />
            <mxPoint x="48.4502712477396" as="targetPoint" />
          </mxGeometry>
        </mxCell>
        <mxCell id="bK-xkZKcuil71p4V97wX-14" value="" style="shape=flexArrow;endArrow=classic;html=1;rounded=0;exitX=0;exitY=1;exitDx=0;exitDy=0;fillColor=#0A0A0A;" edge="1" parent="bK-xkZKcuil71p4V97wX-61" source="bK-xkZKcuil71p4V97wX-8">
          <mxGeometry width="50" height="50" relative="1" as="geometry">
            <mxPoint x="316.7902350813743" y="758.5" as="sourcePoint" />
            <mxPoint x="1145" y="779" as="targetPoint" />
          </mxGeometry>
        </mxCell>
        <mxCell id="bK-xkZKcuil71p4V97wX-17" value="&lt;font color=&quot;#f7f7f7&quot; style=&quot;font-size: 25px;&quot;&gt;Generic&lt;/font&gt;" style="text;html=1;strokeColor=none;fillColor=none;align=center;verticalAlign=middle;whiteSpace=wrap;rounded=0;" vertex="1" parent="bK-xkZKcuil71p4V97wX-61">
          <mxGeometry x="104.35443037974683" y="27.333333333333336" width="163.98553345388788" height="41" as="geometry" />
        </mxCell>
        <mxCell id="bK-xkZKcuil71p4V97wX-18" value="&lt;font color=&quot;#f7f7f7&quot; style=&quot;font-size: 25px;&quot;&gt;Supporting&lt;/font&gt;" style="text;html=1;strokeColor=none;fillColor=none;align=center;verticalAlign=middle;whiteSpace=wrap;rounded=0;" vertex="1" parent="bK-xkZKcuil71p4V97wX-61">
          <mxGeometry x="413.69077757685346" y="27.333333333333336" width="163.98553345388788" height="41" as="geometry" />
        </mxCell>
        <mxCell id="bK-xkZKcuil71p4V97wX-19" value="&lt;font color=&quot;#f7f7f7&quot; style=&quot;font-size: 25px;&quot;&gt;Core&lt;/font&gt;" style="text;html=1;strokeColor=none;fillColor=none;align=center;verticalAlign=middle;whiteSpace=wrap;rounded=0;" vertex="1" parent="bK-xkZKcuil71p4V97wX-61">
          <mxGeometry x="816.2007233273056" y="27.333333333333336" width="163.98553345388788" height="41" as="geometry" />
        </mxCell>
        <mxCell id="bK-xkZKcuil71p4V97wX-20" value="&lt;font style=&quot;font-size: 25px;&quot;&gt;Business Differentiation&lt;/font&gt;" style="text;html=1;strokeColor=none;fillColor=none;align=center;verticalAlign=middle;whiteSpace=wrap;rounded=0;" vertex="1" parent="bK-xkZKcuil71p4V97wX-61">
          <mxGeometry x="48.4502712477396" y="779" width="1073.3598553345387" height="41" as="geometry" />
        </mxCell>
        <mxCell id="bK-xkZKcuil71p4V97wX-21" value="&lt;font style=&quot;font-size: 25px;&quot;&gt;Low&lt;/font&gt;" style="text;html=1;strokeColor=none;fillColor=none;align=center;verticalAlign=middle;whiteSpace=wrap;rounded=0;" vertex="1" parent="bK-xkZKcuil71p4V97wX-61">
          <mxGeometry x="55.90415913200723" y="779" width="81.99276672694394" height="41" as="geometry" />
        </mxCell>
        <mxCell id="bK-xkZKcuil71p4V97wX-23" value="&lt;font style=&quot;font-size: 25px;&quot;&gt;High&lt;/font&gt;" style="text;html=1;strokeColor=none;fillColor=none;align=center;verticalAlign=middle;whiteSpace=wrap;rounded=0;" vertex="1" parent="bK-xkZKcuil71p4V97wX-61">
          <mxGeometry x="1039.8173598553344" y="779" width="81.99276672694394" height="41" as="geometry" />
        </mxCell>
        <mxCell id="bK-xkZKcuil71p4V97wX-24" value="&lt;font style=&quot;font-size: 25px;&quot;&gt;Model Complexity&lt;br&gt;&lt;/font&gt;" style="text;html=1;strokeColor=none;fillColor=none;align=center;verticalAlign=middle;whiteSpace=wrap;rounded=0;rotation=-90;" vertex="1" parent="bK-xkZKcuil71p4V97wX-61">
          <mxGeometry x="-383.87522603978294" y="379.25" width="827.3815551537069" height="41" as="geometry" />
        </mxCell>
        <mxCell id="bK-xkZKcuil71p4V97wX-25" value="&lt;font style=&quot;font-size: 25px;&quot;&gt;Low&lt;/font&gt;" style="text;html=1;strokeColor=none;fillColor=none;align=center;verticalAlign=middle;whiteSpace=wrap;rounded=0;rotation=-90;" vertex="1" parent="bK-xkZKcuil71p4V97wX-61">
          <mxGeometry x="-18.634719710669074" y="717.5" width="81.99276672694394" height="41" as="geometry" />
        </mxCell>
        <mxCell id="bK-xkZKcuil71p4V97wX-27" value="&lt;font style=&quot;font-size: 25px;&quot;&gt;High&lt;/font&gt;" style="text;html=1;strokeColor=none;fillColor=none;align=center;verticalAlign=middle;whiteSpace=wrap;rounded=0;rotation=-90;" vertex="1" parent="bK-xkZKcuil71p4V97wX-61">
          <mxGeometry x="-18.634719710669074" y="34.166666666666664" width="81.99276672694394" height="41" as="geometry" />
        </mxCell>
        <mxCell id="bK-xkZKcuil71p4V97wX-52" value="Выполнение работы на месте" style="rounded=0;whiteSpace=wrap;html=1;container=0;" vertex="1" parent="bK-xkZKcuil71p4V97wX-61">
          <mxGeometry x="960" y="120" width="120" height="60" as="geometry" />
        </mxCell>
        <mxCell id="bK-xkZKcuil71p4V97wX-50" value="Матчинг воркеров" style="rounded=0;whiteSpace=wrap;html=1;container=0;" vertex="1" parent="bK-xkZKcuil71p4V97wX-61">
          <mxGeometry x="960" y="240" width="120" height="60" as="geometry" />
        </mxCell>
        <mxCell id="bK-xkZKcuil71p4V97wX-51" value="Расчёт стоимости" style="rounded=0;whiteSpace=wrap;html=1;container=0;" vertex="1" parent="bK-xkZKcuil71p4V97wX-61">
          <mxGeometry x="715" y="480" width="120" height="60" as="geometry" />
        </mxCell>
        <mxCell id="bK-xkZKcuil71p4V97wX-48" value="Приготовление печенья fur-tune" style="rounded=0;whiteSpace=wrap;html=1;container=0;" vertex="1" parent="bK-xkZKcuil71p4V97wX-61">
          <mxGeometry x="525" y="643.0799999999999" width="120" height="60" as="geometry" />
        </mxCell>
        <mxCell id="bK-xkZKcuil71p4V97wX-49" value="Сбор расходников" style="rounded=0;whiteSpace=wrap;html=1;container=0;" vertex="1" parent="bK-xkZKcuil71p4V97wX-61">
          <mxGeometry x="685" y="643.0799999999999" width="120" height="60" as="geometry" />
        </mxCell>
        <mxCell id="bK-xkZKcuil71p4V97wX-29" value="Оценка характеристик кардидата" style="rounded=0;whiteSpace=wrap;html=1;container=0;" vertex="1" parent="bK-xkZKcuil71p4V97wX-61">
          <mxGeometry x="454.99999999999983" y="369.75" width="120" height="60" as="geometry" />
        </mxCell>
        <mxCell id="bK-xkZKcuil71p4V97wX-57" value="Учёт выплат за ставки в тетрадке" style="rounded=0;whiteSpace=wrap;html=1;container=0;" vertex="1" parent="bK-xkZKcuil71p4V97wX-61">
          <mxGeometry x="63.36000000000013" y="68.32999999999998" width="120" height="60" as="geometry" />
        </mxCell>
        <mxCell id="bK-xkZKcuil71p4V97wX-58" value="Оплата работ клиентами" style="rounded=0;whiteSpace=wrap;html=1;container=0;" vertex="1" parent="bK-xkZKcuil71p4V97wX-61">
          <mxGeometry x="133" y="415" width="120" height="60" as="geometry" />
        </mxCell>
        <mxCell id="bK-xkZKcuil71p4V97wX-59" value="Выплаты воркерам" style="rounded=0;whiteSpace=wrap;html=1;container=0;" vertex="1" parent="bK-xkZKcuil71p4V97wX-61">
          <mxGeometry x="133" y="345" width="120" height="60" as="geometry" />
        </mxCell>
        <mxCell id="bK-xkZKcuil71p4V97wX-55" value="Оценка качества проведённой работы" style="rounded=0;whiteSpace=wrap;html=1;container=0;" vertex="1" parent="bK-xkZKcuil71p4V97wX-61">
          <mxGeometry x="193.00000000000014" y="550" width="120" height="60" as="geometry" />
        </mxCell>
        <mxCell id="bK-xkZKcuil71p4V97wX-56" value="Выявление победителя в ставках" style="rounded=0;whiteSpace=wrap;html=1;container=0;" vertex="1" parent="bK-xkZKcuil71p4V97wX-61">
          <mxGeometry x="63.36000000000013" y="708" width="120" height="60" as="geometry" />
        </mxCell>
      </root>
    </mxGraphModel>
  </diagram>
</mxfile>
